<?xml version="1.0" encoding="utf-8"?>
<!-- Generator: Adobe Illustrator 26.3.1, SVG Export Plug-In . SVG Version: 6.00 Build 0)  -->
<svg version="1.1" id="Capa_1" xmlns="http://www.w3.org/2000/svg" xmlns:xlink="http://www.w3.org/1999/xlink" x="0px" y="0px"
	 viewBox="0 0 900 300" style="enable-background:new 0 0 900 300;" xml:space="preserve">
<style type="text/css">
	.st0{fill:none;}
	.st1{fill:#FFFFFF;}
</style>
<g>
	<path d="M100.9,110.8c0-0.8-0.8-1.3-2.5-1.4c-5.3,9.2-12.9,19.5-22.8,30.7c-9.9,11.2-19.3,20.5-28.1,28
		c-8.8,7.4-14.7,11.1-17.7,11.1c-3,0-4.5-1.1-4.5-3.3c0-5.1,7.3-15.5,21.9-31c14.6-15.5,31-30,49.1-43.3c1.8-4.5,2.7-8.5,2.7-12
		c0-3.5-1.1-6.5-3.4-9.1c-2.3-2.5-5.3-4.4-9.1-5.6c-6.7-2.1-13.9-3.2-21.3-3.2c-17.3,0-26,2.5-26.3,7.6c0,1.9,1.3,3.6,4,5
		c2.6,1.4,5.9,2.7,9.7,3.8c3.8,1.1,7.7,2.3,11.5,3.6c3.8,1.3,7.1,3.2,9.8,5.7c2.7,2.5,4,5.1,4,8c0,2.8-0.5,4.3-1.5,4.3
		c-1,0-1.5-0.5-1.5-1.6c0-3.4-2.2-6.3-6.6-8.8c-4.4-2.5-9.3-4.4-14.5-5.7c-5.3-1.3-10.1-3.1-14.5-5.3c-4.4-2.2-6.6-4.6-6.6-7.1
		c0-2.5,1.1-4.6,3.3-6.2c2.2-1.6,5-2.8,8.4-3.6c6.7-1.5,12.9-2.2,18.3-2.2c5.5,0,10.5,0.3,14.9,1c4.5,0.6,8.9,1.7,13.2,3.2
		c4.3,1.5,7.8,3.7,10.4,6.7c2.6,2.9,4,6.4,4,10.4c0,1.5-0.3,3.3-0.8,5.4c25.1-17.3,45.2-26,60.2-26c5.6,0,8.4,1.8,8.4,5.5
		c0,4.3-3.3,10.1-10,17.4c-6.7,7.3-14.5,13.8-23.5,19.4c-9,5.7-16.3,8.5-22.1,8.5c-3.6,0-6.7-0.6-9.5-1.9c-0.1-0.1-0.3-0.1-0.6-0.1
		c-0.3,0-0.5,1.4-0.5,4.2c0,2.8,0.1,5.6,0.2,8.4c0.2,2.8,0.6,6.5,1.3,11.3c0.7,4.7,1.8,8.7,3.2,12.1c1.4,3.3,3.4,6.3,6.2,8.9
		c2.7,2.6,5.9,3.8,9.4,3.8c3.5,0,9-1.5,16.5-4.4c1.1-0.5,2-0.7,2.8-0.7c0.8,0,1.2,0.2,1.2,0.5c0,0.8-0.8,1.6-2.4,2.2
		c-9.1,4.1-16.1,6.2-21.2,6.2c-5.1,0-9.3-1.6-12.6-4.7c-3.3-3.2-5.6-7.4-6.9-12.8c-1.3-5.4-2.1-10.5-2.5-15.5
		c-0.4-5-0.6-10.3-0.6-16C101.4,116.4,101.2,112.6,100.9,110.8z M32.1,175.1c2.4,0,7.6-3.5,15.5-10.6c7.9-7.1,16.4-16.1,25.6-27.1
		c9.2-11,16-21,20.6-30.1C77.1,119.8,62.5,132.7,50,146c-12.5,13.3-18.7,22.7-18.7,28.2C31.3,174.8,31.6,175.1,32.1,175.1z
		 M102.6,100.9c-0.8,2.1-1.8,4.1-2.8,6h5.1c0.5,0,0.8,0.4,0.9,1.2c0.1,0.8,0.2,1.8,0.3,3c0.1,1.2,0.5,2.2,1.1,3
		c0.6,0.8,1.9,1.6,3.7,2.5c1.8,0.9,4,1.4,6.4,1.4c4.8,0,11.1-2.9,18.7-8.6c7.6-5.7,14.3-12,19.8-18.8c5.6-6.8,8.4-11.8,8.4-14.9
		c0-1.6-0.9-2.5-2.8-2.5C148.3,73.3,128.7,82.5,102.6,100.9z"/>
	<path d="M208.1,146.6c0.7-0.5,1.4-0.7,2.1-0.7c0.6,0,0.9,0.3,0.9,1v0.3c-11,7.9-20.1,13.8-27.4,17.7c-7.3,3.9-13.9,5.9-19.8,5.9
		c-4.7,0-7.1-2-7.1-6c0-5.9,3.5-12.1,10.4-18.3c7-6.3,12.8-9.4,17.6-9.4c2.6,0,4,1.3,4,3.8c-0.5,5-8.9,11.8-25,20.3v1.4
		c0,3,1.8,4.5,5.5,4.5c3.6,0,7.6-1.1,11.8-3.2c8.2-4.2,15.9-9,23.1-14.4L208.1,146.6z M180.7,141.3c-2.3,0-5.3,1.7-8.9,5.1
		c-3.6,3.4-6.1,7.2-7.4,11.5c5.1-2.7,9.3-5.5,12.8-8.4c3.5-3,5.2-5.1,5.2-6.3S181.9,141.3,180.7,141.3z"/>
	<path d="M272.5,147.1c-22.2,16.1-36,24.2-41.3,24.2c-3.1,0-4.6-1.1-4.6-3.3c0-2.2,1.1-4.8,3.4-7.8c2.3-3,4.5-5.7,6.8-8
		c2.3-2.3,3.4-3.7,3.4-4.2c0-0.5-0.2-0.7-0.5-0.7c-9.8,5.7-15.6,9.2-17.5,10.4c-1.8,1.3-4.9,3.4-9,6.3c-4.2,2.9-6.9,4.8-8.1,5.5
		c-1.3,0.7-2.6,1.1-4.1,1.1c-1.5,0-2.2-0.6-2.2-1.7c0-1.3,3-5.3,8.9-12.1c5.7-6.8,8.5-10.6,8.5-11.4c0-0.2-0.2-0.3-0.6-0.3
		c-0.4,0-4.9,2.8-13.7,8.4l-0.6-2.1c7.5-5.2,12.5-8.6,15.2-10c2.6-1.5,4.8-2.2,6.4-2.2c1.6,0,2.5,0.7,2.5,2.1c0,0.9-3,4.6-8.9,11.2
		c-6,6.5-8.9,10.1-8.9,10.6c0,0.5,0.2,0.8,0.6,0.8c0.4,0,6.4-3.7,18-11.1c11.6-7.4,18.7-11.1,21.3-11.1c0.7,0,1.4,0.3,2.1,0.8
		c0.7,0.5,1,1,1,1.4c0,1.1-2.8,4.7-8.4,10.9c-5.6,6.2-8.4,9.7-8.4,10.5c0,0.8,0.7,1.2,2,1.2c1.3,0,4.1-1.2,8.5-3.7
		c7.9-4.5,15.2-9.1,21.8-13.9l3.5-2.5c0.7-0.5,1.4-0.7,2.1-0.7c0.6,0,0.9,0.3,0.9,0.8V147.1z"/>
	<path d="M285.6,153c-0.6,0-0.9-0.2-0.9-0.6c0-0.4,0.4-0.9,1.1-1.4c3.5-2.5,5.2-4.7,5.2-6.7c0-1.3-1.3-2-4-2.2
		c-4.7,0.1-10.4,3.1-17,8.9c-6.6,5.9-9.9,10.3-9.9,13.2c0,1,0.7,1.5,2,1.5c1.3,0,3.1-0.8,5.3-2.3c2-1.1,5.7-3.8,11.2-8.2
		c1.3-1.1,2.5-1.6,3.6-1.6c1.5,0,2.2,0.6,2.2,1.8c0,0.5-0.2,0.8-0.5,1.1c-0.3,0.3-0.9,0.8-1.7,1.7c-0.8,0.9-1.6,1.7-2.2,2.4
		c-1.9,2.4-2.8,3.9-2.8,4.7c0,1.8,0.8,2.7,2.5,2.7c2.2,0,6.4-1.8,12.5-5.3c6.1-3.5,11.7-7.1,16.8-10.6l7.6-5.2
		c0.7-0.5,1.4-0.7,2.1-0.7c0.6,0,0.9,0.3,0.9,1v0.3c-8.1,6-16.7,11.5-25.7,16.8c-9,5.2-14.9,7.8-17.8,7.8c-3.4,0-5.1-1.6-5.1-4.7
		c0-0.7,0.2-1.4,0.5-2.1c0.3-0.6,0.5-1.1,0.5-1.4s-0.1-0.5-0.3-0.5c-0.3,0-2.3,1.2-6.1,3.7c-3.7,2.5-7,3.7-9.8,3.7
		c-2.8,0-4.2-1.3-4.2-3.8c0-2.6,2-6,5.9-10.4c4-4.3,9.3-8.3,15.9-11.9c6.6-3.6,13.1-5.4,19.5-5.4c1.5,0,2.7,0.3,3.7,1
		c1,0.6,1.5,1.6,1.5,3c0,1.3-1.5,3.3-4.6,6C290.4,151.6,287.8,153,285.6,153z"/>
	<path d="M402,111.2l-22.6-1c-9.3,0-18.5,0.3-27.7,1l0.8,2.7c0,1-3.4,4.8-10.3,11.5c-6.9,6.6-13.7,13.9-20.6,21.7
		c-6.9,7.8-10.3,13.6-10.3,17.4c0,1.5,0.6,2.2,1.8,2.2c1.2,0,4-1.3,8.3-3.8c8-4.6,15.3-9.2,22-13.9l3.5-2.5c0.7-0.5,1.4-0.7,1.9-0.7
		c0.5,0,0.8,0.3,0.8,0.8v0.4c0.4,0-2.4,2-8.5,6c-6.1,4-12.5,8.1-19.5,12.1c-6.9,4-11.3,6-13,6c-3.1,0-4.6-1.2-4.6-3.6
		c0-3.5,2.2-8.3,6.7-14.4c4.5-6.1,9.4-11.9,14.7-17.4c5.3-5.4,10.4-10.6,15.2-15.5c4.8-4.9,7.4-7.8,7.8-8.9
		c-11.6,0.9-20.5,2-26.7,3.3l-3.2,0.5c-0.8,0.1-1.3,0.8-1.3,2.1c0,0.5-0.7,0.8-2.2,0.8c-1.5,0-3.3-0.3-5.5-0.9
		c-2.2-0.6-3.2-1.4-3.2-2.5c0-1.1,1.1-1.8,3.2-2.2c15.6-2.4,26.7-3.8,33.2-4.3c6.5-0.5,10.9-0.8,13-1c2.2-0.1,5.5-0.3,10.1-0.3
		c4.6-0.1,7.7-0.1,9.3-0.1c4.7-0.2,10.3-0.3,16.7-0.3c6.4,0,10.3,0.2,11.6,0.7c1.4,0.5,2.1,1.3,2.1,2.6
		C405.6,110.8,404.4,111.2,402,111.2z"/>
	<path d="M358.8,157.6c5.9,0,13-2.9,21.2-8.7l2.7,0.7c-10.3,7.5-19.2,11.3-26.7,11.3c-0.8,0-1.5,0-1.9-0.1c-2.8,3-6,5.5-9.3,7.3
		c-3.4,1.9-6.3,2.8-8.9,2.8c-4,0-6-1.9-6-5.8c0-3.9,3.7-9.1,11.2-15.6c-1.3-2.7-1.9-5.4-1.9-8.4c0-2.9,1.2-5.3,3.6-7.1
		c2.4-1.8,5.2-2.7,8.5-2.7c3.2,0,5.9,0.9,8.1,2.7c2.2,1.8,3.3,4.4,3.3,7.8c0,5.2-2,10.4-5.9,15.7
		C357.3,157.6,357.9,157.6,358.8,157.6z M336.3,164.4c0,1.8,1.4,2.7,4.1,2.7c2.7,0,6.2-2.4,10.4-7.3c-2.8-1.3-5.4-3.5-7.6-6.7
		C338.7,157.5,336.3,161.2,336.3,164.4z M353.7,156.3c3.3-4.8,4.9-8.8,4.9-12.2c0-3.3-0.9-5.8-2.8-7.4c-1.9-1.6-3.7-2.4-5.5-2.4
		c-3.7,0-5.5,1.6-5.5,4.9c0,3.3,0.8,6.6,2.5,9.8C348.9,152.3,351.1,154.7,353.7,156.3z"/>
	<path d="M492.2,105.7c-2.8-0.4-4.1-1.3-3.9-2.8c0.3-2.3,3.8-5.1,10.5-8.6c6.7-3.5,13.9-6,21.7-7.5c0.1-0.2,0.2-0.5,0.3-0.9
		c0.6-4.1-2.4-6.6-8.9-7.4c-6.5-0.9-14.8,0.5-24.9,4c-10.1,3.6-19.2,8.2-27.2,13.8c-8,5.6-12.3,10.7-12.9,15.2
		c-0.8,5.7,4.9,9.4,17,11c7.1,1,13.4,0.3,18.9-1.9c0.4-0.3,0.8-0.5,1.2-0.4c0.7,0.1,1,0.6,0.9,1.6c-0.1,1-0.6,1.5-1.3,1.7
		c-13.8,3.4-25.4,7.8-34.8,13.3c-4,2.3-7.8,5.4-11.4,9.2c-3.6,3.8-5.6,7.5-6.1,11.1c-0.5,3.6,0.2,6.7,2,9.3
		c1.8,2.6,5.7,4.3,11.5,5.1c2,0.2,4.3,0.2,6.8,0.1s7-1.1,13.3-2.9c6.3-1.8,12.5-4.5,18.5-8.2c1-0.8,1.7-1.2,2.2-1.1
		c0.6,0.2,0.9,0.6,0.8,1.2c-0.2,1.5-3,3.6-8.3,6.1c-5.3,2.5-11.9,4.6-19.6,6.3c-7.7,1.7-14.4,2.2-19.9,1.5
		c-7.9-1.1-13.1-4.2-15.3-9.3c-0.9-2.1-1.2-4.3-0.8-6.8c0.8-6,5.7-12.2,14.7-18.6s20.2-11.3,33.7-14.6c-5,0.2-9.6,0.1-13.8-0.5
		c-13.2-1.8-19.3-5.9-18.4-12.2c0.5-3.9,3.6-8.3,9.3-13.1c5.7-4.8,12.3-9.1,19.9-12.9c7.6-3.8,15.7-6.8,24.2-9.1
		c8.6-2.3,15.7-3.1,21.5-2.3c8.9,1.2,13,4.4,12.2,9.7c-0.1,0.5-0.2,0.9-0.3,1.2c4.8-0.6,8.3-0.8,10.6-0.5c2.3,0.3,3.8,0.6,4.4,0.8
		c0.6,0.2,0.8,0.8,0.7,1.8c-0.1,1-0.6,1.5-1.5,1.6c-4.8-0.7-10.1-0.6-16,0.2c-3,4.5-7.6,8.4-14,11.8
		C503.3,105.1,497.5,106.4,492.2,105.7z M493.7,102c-0.1,0.8,0.7,1.3,2.3,1.6c3.1,0.4,7.1-0.7,11.8-3.5c4.7-2.7,8.3-5.8,10.7-9.3
		c-6.4,1.4-12,3.2-17,5.5C496.5,98.7,493.9,100.6,493.7,102z"/>
	<path d="M541,146.6c0.8-0.5,1.6-0.7,2.1-0.7c0.6,0,0.9,0.3,0.9,1v0.3c-8.1,6-16.7,11.5-25.7,16.8c-9,5.2-14.7,7.8-17.2,7.8
		c-2.4,0-4.5-0.4-6.1-1.2c-1.6-0.8-2.4-1.7-2.4-2.7c0-1,0.3-1.9,0.9-2.5c0.6-0.7,1.2-1,1.7-1c0.5,0,1.4,0.7,2.6,2.1
		c1.2,1.4,2.4,2.1,3.6,2.1c2.4,0,4.3-2.2,5.7-6.7c1.4-4.5,2.1-7.6,2.1-9.3c0-1.7-0.1-2.5-0.4-2.5c-0.3,0-0.5,0.1-0.7,0.3l-4.6,3.2
		l-0.6-2.1c6.6-4.6,10.5-7.6,11.5-9.2c0.6-1.5,1.5-2.2,2.7-2.2c0.7,0,1.1,0.2,1.1,0.7c0,0.5-0.4,1.4-1.1,3
		c-0.7,1.5-1.7,4.9-2.9,10.2c-1.2,5.3-1.8,8.4-1.8,9.2c0,0.8,0.3,1.2,0.8,1.2c7.4-3.9,15.2-8.8,23.4-14.7L541,146.6z"/>
	<path d="M579.4,146.6c0.8-0.5,1.6-0.7,2.1-0.7c0.6,0,0.9,0.3,0.9,1v0.3c-8.3,6.4-16.9,12-25.8,16.9c-8.9,4.9-16.2,7.3-22.1,7.3
		c-4.6,0-7-2.4-7-7.2c0-4.8,3.3-10,10-15.7c6.7-5.7,13.9-8.5,21.7-8.5c2.3,0.2,3.8,0.5,4.3,1c0.6,0.5,0.9,1.1,0.9,1.9
		c0,0.8-1,2.3-2.9,4.5c-2,2.2-3.7,3.2-5.3,3.2c-1.8-0.3-2.7-0.8-2.7-1.6c0-0.4,0.5-1,1.4-1.8c1.8-1.4,2.7-2.4,2.7-3
		c0-0.6-0.6-1-1.7-1c-3.7,0.1-8.3,2.7-13.9,7.9c-5.6,5.2-8.4,9.5-8.4,12.8c0,2.6,1.9,3.8,5.8,3.8s8-1.2,12.4-3.6
		c7.8-4.1,15.7-9,23.6-14.7L579.4,146.6z"/>
	<path d="M596,153c-0.6,0-1-0.2-1-0.6c0-0.4,0.4-0.9,1.1-1.4c3.5-2.5,5.2-4.7,5.2-6.7c0-1.3-1.3-2-4-2.2c-4.7,0.1-10.4,3.1-17,8.9
		c-6.6,5.9-9.9,10.3-9.9,13.2c0,1,0.7,1.5,2,1.5c1.3,0,3.1-0.8,5.3-2.3c2-1.1,5.7-3.8,11.2-8.2c1.3-1.1,2.5-1.6,3.6-1.6
		c1.5,0,2.2,0.6,2.2,1.8c0,0.5-0.2,0.8-0.5,1.1c-0.3,0.3-0.9,0.8-1.7,1.7c-0.8,0.9-1.6,1.7-2.2,2.4c-1.9,2.4-2.8,3.9-2.8,4.7
		c0,1.8,0.8,2.7,2.5,2.7c2.2,0,6.4-1.8,12.5-5.3c6.1-3.5,11.7-7.1,16.8-10.6l7.6-5.2c0.7-0.5,1.4-0.7,2.1-0.7c0.6,0,0.9,0.3,0.9,1
		v0.3c-8.1,6-16.7,11.5-25.7,16.8c-9,5.2-14.9,7.8-17.8,7.8c-3.4,0-5.1-1.6-5.1-4.7c0-0.7,0.2-1.4,0.5-2.1c0.3-0.6,0.5-1.1,0.5-1.4
		s-0.1-0.5-0.3-0.5c-0.3,0-2.3,1.2-6.1,3.7c-3.7,2.5-7,3.7-9.8,3.7c-2.8,0-4.2-1.3-4.2-3.8c0-2.6,2-6,5.9-10.4
		c4-4.3,9.3-8.3,15.9-11.9c6.6-3.6,13.1-5.4,19.5-5.4c1.5,0,2.7,0.3,3.7,1c1,0.6,1.5,1.6,1.5,3c0,1.3-1.5,3.3-4.6,6
		C600.8,151.6,598.2,153,596,153z"/>
	<path d="M665.2,146.6c0.7-0.5,1.4-0.7,2.1-0.7c0.6,0,1,0.3,1,1v0.3c-11,7.9-19.3,13.4-25,16.5c-7.4,4.9-13.6,7.3-18.7,7.3
		c-4.4,0-6.6-2.3-6.6-6.9c0-6.1,4.6-15.2,13.7-27.3c9.1-12,19.4-22.9,30.8-32.5c11.4-9.6,20-14.4,25.8-14.4c2.6,0,4,1,4,3
		c0,5-6.9,13.3-20.8,24.9c-13.9,11.6-27.5,21.5-40.9,29.6c-3.9,6.5-5.9,11.4-5.9,14.8c0,3.4,1.4,5.1,4.1,5.1c2.7,0,6.3-1.4,10.8-4.1
		c7.5-3.8,14.8-8.4,21.8-13.7L665.2,146.6z M684.2,94.3c-4.4,0-12.3,5.5-23.6,16.6c-11.3,11.1-20.6,22.2-28,33.2
		c12.1-7.5,24-16.7,35.6-27.5c11.6-10.9,17.4-17.9,17.4-21.1C685.6,94.7,685.2,94.3,684.2,94.3z"/>
	<path d="M681.7,153c-0.6,0-1-0.2-1-0.6c0-0.4,0.4-0.9,1.1-1.4c3.5-2.5,5.2-4.7,5.2-6.7c0-1.3-1.3-2-4-2.2c-4.7,0.1-10.4,3.1-17,8.9
		c-6.6,5.9-9.9,10.3-9.9,13.2c0,1,0.7,1.5,2,1.5c1.3,0,3.1-0.8,5.3-2.3c2-1.1,5.7-3.8,11.2-8.2c1.3-1.1,2.5-1.6,3.6-1.6
		c1.5,0,2.2,0.6,2.2,1.8c0,0.5-0.2,0.8-0.5,1.1c-0.3,0.3-0.9,0.8-1.7,1.7c-0.8,0.9-1.6,1.7-2.2,2.4c-1.9,2.4-2.8,3.9-2.8,4.7
		c0,1.8,0.8,2.7,2.5,2.7c2.2,0,6.4-1.8,12.5-5.3c6.1-3.5,11.7-7.1,16.8-10.6l7.6-5.2c0.7-0.5,1.4-0.7,2.1-0.7c0.6,0,0.9,0.3,0.9,1
		v0.3c-8.1,6-16.7,11.5-25.7,16.8c-9,5.2-14.9,7.8-17.8,7.8c-3.4,0-5.1-1.6-5.1-4.7c0-0.7,0.2-1.4,0.5-2.1c0.3-0.6,0.5-1.1,0.5-1.4
		s-0.1-0.5-0.3-0.5c-0.3,0-2.3,1.2-6.1,3.7c-3.7,2.5-7,3.7-9.8,3.7c-2.8,0-4.2-1.3-4.2-3.8c0-2.6,2-6,5.9-10.4
		c4-4.3,9.3-8.3,15.9-11.9c6.6-3.6,13.1-5.4,19.5-5.4c1.5,0,2.7,0.3,3.7,1c1,0.6,1.5,1.6,1.5,3c0,1.3-1.5,3.3-4.6,6
		C686.5,151.6,683.9,153,681.7,153z"/>
	<path d="M776.9,147.1c-22.2,16.1-36,24.2-41.3,24.2c-3.1,0-4.6-1.1-4.6-3.3c0-2.2,1.1-4.8,3.4-7.8c2.3-3,4.5-5.7,6.8-8
		c2.3-2.3,3.4-3.7,3.4-4.2c0-0.5-0.2-0.7-0.5-0.7c-9.8,5.7-15.6,9.2-17.5,10.4c-1.8,1.3-4.8,3.4-9,6.3c-4.2,2.9-6.9,4.8-8.1,5.5
		c-1.3,0.7-2.6,1.1-4.1,1.1c-1.5,0-2.2-0.6-2.2-1.7c0-1.3,2.9-5.3,8.9-12.1c5.7-6.8,8.5-10.6,8.5-11.4c0-0.2-0.2-0.3-0.6-0.3
		c-0.4,0-4.9,2.8-13.7,8.4l-0.6-2.1c7.5-5.2,12.5-8.6,15.2-10c2.6-1.5,4.8-2.2,6.4-2.2s2.5,0.7,2.5,2.1c0,0.9-3,4.6-8.9,11.2
		c-6,6.5-8.9,10.1-8.9,10.6c0,0.5,0.2,0.8,0.6,0.8c0.4,0,6.4-3.7,18-11.1c11.6-7.4,18.7-11.1,21.3-11.1c0.7,0,1.4,0.3,2.1,0.8
		c0.7,0.5,1,1,1,1.4c0,1.1-2.8,4.7-8.4,10.9c-5.6,6.2-8.4,9.7-8.4,10.5c0,0.8,0.7,1.2,2,1.2c1.3,0,4.1-1.2,8.5-3.7
		c7.9-4.5,15.2-9.1,21.8-13.9l3.5-2.5c0.7-0.5,1.4-0.7,2.1-0.7c0.6,0,0.9,0.3,0.9,0.8V147.1z"/>
	<path d="M884.8,111.2l-48.4-1c-9.3,0-18.5,0.3-27.7,1l1.2-7.1l3.7-0.3c0.7-0.1,1.2,0.6,0.9,1.1c-2,3.8-9.5,14.8-15.3,20.5
		c-6.9,6.6-13.7,13.9-20.6,21.7c-6.9,7.8-10.3,13.6-10.3,17.4c0,1.5,0.6,2.2,1.8,2.2c1.2,0,4-1.3,8.3-3.8c8-4.6,15.3-9.2,22-13.9
		l3.5-2.5c0.7-0.5,1.4-0.7,1.9-0.7c0.5,0,0.8,0.3,0.8,0.8v0.4c0.4,0-2.4,2-8.5,6c-6.1,4-12.5,8.1-19.5,12.1c-6.9,4-11.3,6-13,6
		c-3.1,0-4.6-1.2-4.6-3.6c0-3.5,2.2-8.3,6.7-14.4c4.5-6.1,9.4-11.9,14.7-17.4c5.3-5.4,10.4-10.6,15.2-15.5c4.8-4.9,7.4-7.8,7.8-8.9
		c-11.6,0.9-20.5,2-26.7,3.3l-3.2,0.5c-0.8,0.1-1.3,0.8-1.3,2.1c0,0.5-0.7,0.8-2.2,0.8c-1.5,0-3.3-0.3-5.5-0.9
		c-2.2-0.6-3.2-1.4-3.2-2.5c0-1.1,1.1-1.8,3.2-2.2c15.6-2.4,26.7-3.8,33.2-4.3c2.6-0.2,5.3-0.1,7.2-0.3c0.3,0,2.4-3.8,2.7-3.8
		c2.4-0.2,1.8,3.3,3,3.2c2.2-0.1,5.6-0.4,10.2-0.4c4.6-0.1,7.7-0.1,9.3-0.1c4.7-0.2,36.1-0.3,42.5-0.3s10.3,0.2,11.6,0.7
		c1.4,0.5,2.1,1.3,2.1,2.6C888.4,110.8,887.2,111.2,884.8,111.2z"/>
	<path d="M844.2,146.6c0.7-0.5,1.4-0.7,2.1-0.7c0.6,0,0.9,0.3,0.9,1v0.3c-11,7.9-20.1,13.8-27.4,17.7c-7.3,3.9-13.9,5.9-19.8,5.9
		c-4.7,0-7.1-2-7.1-6c0-5.9,3.5-12.1,10.4-18.3c7-6.3,12.8-9.4,17.6-9.4c2.6,0,4,1.3,4,3.8c-0.5,5-8.9,11.8-25,20.3v1.4
		c0,3,1.8,4.5,5.5,4.5c3.6,0,7.6-1.1,11.8-3.2c8.2-4.2,15.9-9,23.1-14.4L844.2,146.6z M816.9,141.3c-2.3,0-5.3,1.7-8.9,5.1
		c-3.6,3.4-6.1,7.2-7.4,11.5c5.1-2.7,9.3-5.5,12.8-8.4c3.5-3,5.2-5.1,5.2-6.3S818,141.3,816.9,141.3z"/>
</g>
<g>
	<path class="st0" d="M453.4,221.4c-3.5,0.2-6.8,1.1-10.1,1.7c0.2,0.2,0.4,0.5,0.5,0.7c10.4,0,20.8,0.1,31.2,0
		c10.5-0.2,21.3,1.3,34.2-1.6c-6.9-1.2-11.3-2.6-15.5-2.5C480.3,219.9,466.8,220.6,453.4,221.4z"/>
	<path class="st0" d="M342.9,222.9c-37.4-2.6-74.9-5-112.2-7.8c-21.3-1.6-42.3-3.9-63.6-5.3c-33.8-2.3-67.9-3.2-102-2.2
		c-10.4,0.3-20.9,1.2-31.1,2.3c-6.8,0.7-12.9,2.5-15.9,6c-6.5,7.6,0.9,17.9,16,21.2c12,2.6,24.3,5,37.7,5c20.9,0,41.8,1.3,62.7,0.1
		c12.5-0.7,25.1-1,37.5-1.6c23.4-1.3,46.9-2.4,70.3-4.2c28-2.1,55.8-4.8,83.6-7.3c11.8-1.1,23.4-2.4,35.2-3.6c0-0.4,0-0.7,0-1.1
		C355,223.9,349,223.3,342.9,222.9z"/>
	<path class="st0" d="M226.7,193c0.4,0.1,0.9,0,1.3-0.1c0.2,0,0.1-0.3,0.2-0.4c-0.8,0-1.7,0.1-2.5,0.1
		C226.1,192.7,226.4,192.9,226.7,193z"/>
	<path class="st0" d="M605.3,215.8c0.3,0,0.3-0.5,0.5-0.7c-15.1-1.3-57.3,0.1-88.1,2.9c-0.4,0-0.6,0.8-1,1.6
		c10.3,1.9,20.6,3.3,31.8,2.2c9.8-0.9,19.7-1.4,29.5-2.4C587.2,218.4,596.2,217.1,605.3,215.8z"/>
	<path class="st0" d="M625.6,216c-18,3.7-37.1,5.6-56.2,7.5c-4.5,0.5-9.1,0.8-14.2,1.3c2.6,2.6,6.3,3.8,11,4.4
		c5,0.6,10.2,1,15.1,1.9c4.8,0.9,9.2,3.2,13.9,3.3c5.4,0.2,10.1,0.9,15.1,1.5c17.3,2.1,34.4,4.8,51.9,6c16.5,1.1,33.5,0.9,50.2,0.6
		c10.9-0.2,21.8-1.5,32.6-2.6c7.8-0.8,15-2.5,20.8-5.4c12.5-6.2,10.2-10.8-4.2-14.1c-16.1-3.8-33.1-5-50.3-5.8
		c-15.1-0.7-30.4-1-45.6-1.3C652.1,213.1,638.7,213.3,625.6,216z"/>
	<path class="st0" d="M243.8,192.9c1.5,0.1,3,0.4,4.6,0.4c35.2,0.2,70.2,1.7,105.1,3.5c26.7,1.4,53,3.6,78.8,7.4
		c15.6,2.3,30.8,5.2,46.1,8c10.5,1.9,20.7,3.7,32.1,2.4c5.1-0.6,10.4-0.5,15.7-0.7c32.9-1.2,65.9-2.7,98.8-3.6
		c11.3-0.3,21.7-1.3,31.2-4.6c5.2-1.8,11-3.2,15.9-5.2c4.9-2,9.4-4.3,13.5-6.7c1.7-1,1.6-2.8,2.3-4.4
		C539,187.6,391.4,190.5,243.8,192.9z"/>
	<path d="M843.3,180.3l-234.5,3.3l-366.2,5.2c-2.5,0-4.6,0-6.7,0c-31.4,0.4-62.8,2.1-94.2,0.5c-1-0.1-2.1,0.2-3.1,0.2
		c-15.7,0.1-31.4,0.3-47.1,0.3c-14.1-0.1-28.2-0.5-42.3-0.6c-2.4,0-4.9,0.7-7.2,1.3c-0.7,0.2-1.1,0.9-1,1.4c0.1,0.4,1,1.2,1.7,1.2
		c5.2,0.3,10.4,0.7,15.6,0.8c33,0.5,66.1,0.9,99.1,1.4c20.4,0.3,40.9,0.8,61.3,1.2c28.8,0.6,57.7,0.1,86.4,1.9
		c14,0.9,28.2,0.9,42.3,1.4c6.8,0.3,13.4,1.1,20.2,1.4c34.1,2,66.7,7,99,12.7c2.2,0.4,5.4,0.5,5.4,2.3c-0.2,0.3-0.4,0.7-0.6,0.7
		c-16.6,1.3-33.1,2.6-49.8,3.7c-9.8,0.7-19.9,1.6-29.7,1.3c-21.4-0.8-42.8-2.1-64.1-3.5c-19.8-1.2-39.4-2.8-59.2-4.2
		c-18.1-1.3-36.3-2.6-54.4-3.9c-28.5-2-56.6-5.4-85.6-6c-23.5-0.5-47-1.3-70.5,0c-9.8,0.5-19.7,1.6-29.2,3
		c-27.6,4.2-27.3,23.6-9.5,30.1c7.4,2.7,15.1,4.8,23.8,6c15.9,2.2,32.2,2.6,48.4,2.7c37.3,0.4,74.5-1.1,111.4-3.7
		c57.6-4,114.8-9.3,172-14.8c9.2-0.9,18.6-1.7,28-1.9c12.5-0.2,25.1-0.1,37.6,0.5c25.2,1.2,50.3,0.9,75.4-0.3
		c5.7-0.3,11.7-0.2,17.2,0.4c7.6,0.9,14.9,2.5,22.4,3.8c22.1,3.9,43.9,8.4,66.8,11.2c26.1,3.2,52.4,5.5,79.4,5
		c20-0.4,39.7-1.8,58.4-5.7c7.6-1.6,13.6-4.1,19.1-6.9c7.8-4.1,7.1-11.8-1.7-14.2c-9.6-2.6-19.8-5.2-30.3-6.5
		c-12.7-1.5-26-1.7-39-2.3c-15.5-0.7-31-1.1-48.5-1.7c5.4-3.2,11.7-4.1,16.2-6.1c5.2-2.3,10.4-4.5,15.1-7c4.3-2.3,7.9-4.9,11.6-7.3
		c23.2-0.6,45.8-1.1,68.3-1.6c10.5-0.3,21-0.5,31.4-1c9.4-0.4,18.6-1.2,28.1-0.1c3.6,0.4,8.2-0.6,11.7-1.5
		C845.4,183.8,843.7,181.9,843.3,180.3z M228,192.9c-0.4,0.1-0.9,0.1-1.3,0.1c-0.4-0.1-0.7-0.3-1-0.4c0.8,0,1.7-0.1,2.5-0.1
		C228.2,192.7,228.2,192.9,228,192.9z M325.9,229.1c-27.8,2.5-55.6,5.2-83.6,7.3c-23.3,1.8-46.8,2.9-70.3,4.2
		c-12.5,0.7-25.1,0.9-37.5,1.6c-20.9,1.2-41.8-0.2-62.7-0.1c-13.4,0-25.7-2.3-37.7-5c-15.1-3.3-22.4-13.5-16-21.2
		c3-3.5,9.1-5.3,15.9-6c10.3-1,20.7-2,31.1-2.3c34.1-1,68.1,0,102,2.2c21.3,1.4,42.4,3.7,63.6,5.3c37.4,2.7,74.8,5.2,112.2,7.8
		c6,0.4,12,1,18.1,1.5c0,0.4,0,0.7,0,1.1C349.3,226.7,337.6,228,325.9,229.1z M475,223.7c-10.4,0.2-20.8,0-31.2,0
		c-0.2-0.2-0.4-0.5-0.5-0.7c3.4-0.6,6.7-1.5,10.1-1.7c13.4-0.8,26.9-1.5,40.4-1.8c4.2-0.1,8.6,1.3,15.5,2.5
		C496.3,225,485.5,223.5,475,223.7z M516.7,219.6c0.5-0.8,0.6-1.5,1-1.6c30.8-2.8,73-4.2,88.1-2.9c-0.2,0.3-0.2,0.7-0.5,0.7
		c-9.1,1.2-18.2,2.6-27.4,3.6c-9.8,1-19.7,1.5-29.5,2.4C537.3,222.9,527,221.5,516.7,219.6z M665.7,213.4
		c15.2,0.3,30.4,0.6,45.6,1.3c17.2,0.8,34.3,2,50.3,5.8c14.4,3.4,16.7,7.9,4.2,14.1c-5.8,2.9-13,4.6-20.8,5.4
		c-10.8,1.1-21.7,2.4-32.6,2.6c-16.7,0.3-33.7,0.5-50.2-0.6c-17.5-1.2-34.7-3.9-51.9-6c-5-0.6-9.7-1.4-15.1-1.5
		c-4.7-0.1-9.1-2.4-13.9-3.3c-4.8-0.9-10-1.3-15.1-1.9c-4.7-0.6-8.4-1.8-11-4.4c5.1-0.5,9.7-0.8,14.2-1.3c19-1.9,38.2-3.8,56.2-7.5
		C638.7,213.3,652.1,213.1,665.7,213.4z M685.5,193.7c-4,2.4-8.5,4.7-13.5,6.7c-4.9,2-10.7,3.4-15.9,5.2c-9.5,3.2-19.9,4.2-31.2,4.6
		c-33,1-65.9,2.4-98.8,3.6c-5.2,0.2-10.6,0.1-15.7,0.7c-11.4,1.4-21.7-0.4-32.1-2.4c-15.2-2.8-30.5-5.7-46.1-8
		c-25.8-3.8-52.1-6-78.8-7.4c-35-1.8-70-3.3-105.1-3.5c-1.5,0-3.1-0.2-4.6-0.4c147.6-2.4,295.2-5.2,444.1-3.6
		C687.1,190.8,687.2,192.6,685.5,193.7z"/>
</g>
<path class="st1" d="M338.9,251c0,0.1,0,0.2,0,0.2c-0.1,0-0.2,0.1-0.3,0c-0.1,0-0.2-0.1-0.2-0.2C338.5,251.1,338.7,251,338.9,251z"
	/>
</svg>
